<?xml version="1.0" encoding="iso-8859-1"?>
<!-- Generator: Adobe Illustrator 19.0.0, SVG Export Plug-In . SVG Version: 6.00 Build 0)  -->
<svg version="1.1" id="Layer_1" xmlns="http://www.w3.org/2000/svg" xmlns:xlink="http://www.w3.org/1999/xlink" x="0px" y="0px"
	 viewBox="0 0 376.228 376.228" style="enable-background:new 0 0 376.228 376.228;" xml:space="preserve">
<g>
	<path style="fill:#51B3DA;" d="M32.775,287.603V54.084c0-5.139,4.166-9.305,9.305-9.305h292.067c5.139,0,9.305,4.166,9.305,9.305
		v233.519H32.775z"/>
	<rect x="56.038" y="108.685" style="fill:#FFFFFF;" width="264.151" height="155.656"/>
	<rect x="56.038" y="68.042" style="fill:#C7E9F4;" width="264.151" height="40.643"/>
	<rect x="88.62" y="175.065" style="fill:#F59D00;" width="84.435" height="70.183"/>
	<rect x="192.416" y="217.82" style="fill:#FFDA79;" width="95.191" height="27.428"/>
	<rect x="88.351" y="127.776" style="fill:#CBE5C0;" width="199.256" height="28.196"/>
	<path style="fill:#51B3DA;" d="M359.422,331.449H16.805c-5.139,0-9.305-4.166-9.305-9.305v-34.54h361.228v34.54
		C368.728,327.283,364.562,331.449,359.422,331.449z"/>
	<g>
		<rect x="192.416" y="175.065" style="fill:#FFDA79;" width="95.191" height="42.755"/>
		<g>
			<path style="fill:#13829B;" d="M320.19,60.542H56.038c-4.142,0-7.5,3.358-7.5,7.5v40.643V264.34c0,4.142,3.358,7.5,7.5,7.5
				H320.19c4.142,0,7.5-3.358,7.5-7.5V108.684V68.042C327.69,63.9,324.332,60.542,320.19,60.542z M63.538,75.542H312.69v25.643
				H63.538V75.542z M312.69,256.84H63.538V116.184H312.69V256.84z"/>
			<circle style="fill:#13829B;" cx="88.351" cy="88.363" r="7.26"/>
			<circle style="fill:#13829B;" cx="112.552" cy="88.363" r="7.26"/>
			<circle style="fill:#13829B;" cx="136.754" cy="88.363" r="7.26"/>
			<path style="fill:#13829B;" d="M173.055,167.565H88.62c-4.142,0-7.5,3.358-7.5,7.5v70.183c0,4.142,3.358,7.5,7.5,7.5h84.435
				c4.142,0,7.5-3.358,7.5-7.5v-70.183C180.555,170.923,177.197,167.565,173.055,167.565z M165.555,237.748H96.12v-55.183h69.435
				V237.748z"/>
			<path style="fill:#13829B;" d="M88.352,163.472h199.256c4.142,0,7.5-3.358,7.5-7.5v-28.196c0-4.142-3.358-7.5-7.5-7.5H88.352
				c-4.142,0-7.5,3.358-7.5,7.5v28.196C80.852,160.115,84.21,163.472,88.352,163.472z M95.852,135.277h184.256v13.196H95.852
				V135.277z"/>
			<path style="fill:#13829B;" d="M368.728,280.103h-17.775V54.084c0-9.267-7.539-16.805-16.805-16.805H42.08
				c-9.267,0-16.805,7.539-16.805,16.805v226.02H7.5c-4.142,0-7.5,3.358-7.5,7.5v34.54c0,9.267,7.539,16.806,16.805,16.806h342.617
				c9.267,0,16.805-7.539,16.805-16.806v-34.54C376.228,283.461,372.87,280.103,368.728,280.103z M40.275,54.084
				c0-0.996,0.81-1.805,1.805-1.805h292.067c0.996,0,1.805,0.81,1.805,1.805v226.02H40.275V54.084z M361.228,322.143
				c0,0.996-0.81,1.806-1.805,1.806H16.805c-0.996,0-1.805-0.81-1.805-1.806v-27.04h17.775h310.678h17.775V322.143z"/>
			<path style="fill:#13829B;" d="M204.689,302.026h-33.149c-4.142,0-7.5,3.358-7.5,7.5c0,4.142,3.358,7.5,7.5,7.5h33.149
				c4.142,0,7.5-3.358,7.5-7.5C212.189,305.384,208.831,302.026,204.689,302.026z"/>
			<path style="fill:#13829B;" d="M287.607,167.565h-95.191c-4.142,0-7.5,3.358-7.5,7.5v42.755v27.428c0,4.142,3.358,7.5,7.5,7.5
				h95.191c4.142,0,7.5-3.358,7.5-7.5V217.82v-42.755C295.107,170.923,291.75,167.565,287.607,167.565z M199.916,182.565h80.192
				v27.755h-80.192V182.565z M280.108,237.748h-80.192V225.32h80.192V237.748z"/>
		</g>
	</g>
</g>
<g>
</g>
<g>
</g>
<g>
</g>
<g>
</g>
<g>
</g>
<g>
</g>
<g>
</g>
<g>
</g>
<g>
</g>
<g>
</g>
<g>
</g>
<g>
</g>
<g>
</g>
<g>
</g>
<g>
</g>
</svg>
